<svg xmlns="http://www.w3.org/2000/svg" width="34" height="36.934" viewBox="0 0 34 36.934">
  <path id="Union_6" data-name="Union 6" d="M18.981,36.931c-1.263,0-2.7,0-3.959,0-7.389.012-11.093.02-13.089-1.975C-.008,33.016,0,29.6,0,22.808V20.132C-.008,12.553-.011,8.751,2.052,6.691c1.348-1.348,3.4-1.8,6.741-1.94V.879a.879.879,0,0,1,1.759,0V4.7c1.284-.02,2.729-.017,4.358-.015.665,0,1.36,0,2.09,0s1.424,0,2.087,0c1.63,0,3.071-.006,4.358.015V.879a.879.879,0,0,1,1.759,0V4.748c3.341.147,5.392.595,6.741,1.94C34.007,8.749,34,12.55,34,20.129V22.8h0c.009,6.8.012,10.211-1.929,12.151-1.844,1.844-5.147,1.978-11.457,1.978ZM1.759,20.132v2.676c-.006,6.111-.009,9.478,1.416,10.9,1.48,1.48,4.947,1.477,11.843,1.463.63,0,1.292,0,1.981,0s1.351,0,1.981,0c6.9.012,10.363.018,11.843-1.463,1.425-1.424,1.421-4.792,1.416-10.9V20.129c0-3.336,0-5.888-.155-7.82H1.911C1.753,14.241,1.756,16.794,1.759,20.132Zm1.536-12.2a4.837,4.837,0,0,0-1.158,2.617H31.861A4.837,4.837,0,0,0,30.7,7.934c-1.513-1.509-5.1-1.5-11.612-1.489q-1,0-2.093,0t-2.093,0h0l-1.74,0C7.746,6.443,4.666,6.565,3.295,7.934ZM19.308,27l-2.931-2.931a.877.877,0,0,1-.258-.621V17.585a.879.879,0,0,1,1.759,0v5.5l2.673,2.673a.879.879,0,0,1,0,1.243.877.877,0,0,1-1.242,0Z" transform="translate(0)" fill="#fff"/>
</svg>
