<svg id="linkedin_-_white_-_icon" data-name="linkedin - white - icon" xmlns="http://www.w3.org/2000/svg" width="24" height="24" viewBox="0 0 24 24">
  <path id="Path_28" data-name="Path 28" d="M0,0H24V24H0Z" fill="none"/>
  <g id="Icon_feather-linkedin" data-name="Icon feather-linkedin" transform="translate(3.171 3.463)">
    <path id="Path_169" data-name="Path 169" d="M18.5,12a3.5,3.5,0,0,1,3.5,3.5v4.08H19.663V15.5a1.166,1.166,0,1,0-2.331,0v4.08H15V15.5A3.5,3.5,0,0,1,18.5,12Z" transform="translate(-7.337 -5.503)" fill="none" stroke="#fff" stroke-linecap="round" stroke-linejoin="round" stroke-width="1"/>
    <path id="Path_170" data-name="Path 170" d="M3,13.5H5.331v6.994H3Z" transform="translate(0 -6.42)" fill="none" stroke="#fff" stroke-linecap="round" stroke-linejoin="round" stroke-width="1"/>
    <path id="Path_171" data-name="Path 171" d="M5.331,4.166A1.166,1.166,0,1,1,4.166,3,1.166,1.166,0,0,1,5.331,4.166Z" transform="translate(0 0)" fill="none" stroke="#fff" stroke-linecap="round" stroke-linejoin="round" stroke-width="1"/>
  </g>
</svg>
