<svg xmlns="http://www.w3.org/2000/svg" width="31.894" height="31.895" viewBox="0 0 31.894 31.895">
  <g id="Group_108" data-name="Group 108" transform="translate(-1074.053 -8913.053)">
    <g id="Group_106" data-name="Group 106" transform="translate(1078 8917)">
      <path id="Path_53" data-name="Path 53" d="M0,0H24V24H0Z" fill="none"/>
      <path id="Path_54" data-name="Path 54" d="M15,19V17a2,2,0,0,1,2-2h2" fill="none" stroke="#fff" stroke-linecap="round" stroke-linejoin="round" stroke-width="1"/>
      <path id="Path_55" data-name="Path 55" d="M15,5V7a2,2,0,0,0,2,2h2" fill="none" stroke="#fff" stroke-linecap="round" stroke-linejoin="round" stroke-width="1"/>
      <path id="Path_56" data-name="Path 56" d="M5,15H7a2,2,0,0,1,2,2v2" fill="none" stroke="#fff" stroke-linecap="round" stroke-linejoin="round" stroke-width="1"/>
      <path id="Path_57" data-name="Path 57" d="M5,9H7A2,2,0,0,0,9,7V5" fill="none" stroke="#fff" stroke-linecap="round" stroke-linejoin="round" stroke-width="1"/>
    </g>
    <g id="Group_107" data-name="Group 107" transform="translate(1084.196 8913.053) rotate(25)">
      <path id="Path_53-2" data-name="Path 53" d="M0,0H24V24H0Z" fill="none"/>
      <path id="Path_54-2" data-name="Path 54" d="M15,19V17a2,2,0,0,1,2-2h2" fill="none" stroke="#fff" stroke-linecap="round" stroke-linejoin="round" stroke-width="1"/>
      <path id="Path_55-2" data-name="Path 55" d="M15,5V7a2,2,0,0,0,2,2h2" fill="none" stroke="#fff" stroke-linecap="round" stroke-linejoin="round" stroke-width="1"/>
      <path id="Path_56-2" data-name="Path 56" d="M5,15H7a2,2,0,0,1,2,2v2" fill="none" stroke="#fff" stroke-linecap="round" stroke-linejoin="round" stroke-width="1"/>
      <path id="Path_57-2" data-name="Path 57" d="M5,9H7A2,2,0,0,0,9,7V5" fill="none" stroke="#fff" stroke-linecap="round" stroke-linejoin="round" stroke-width="1"/>
    </g>
  </g>
</svg>
