<svg id="Group_117" data-name="Group 117" xmlns="http://www.w3.org/2000/svg" width="26" height="26" viewBox="0 0 26 26">
  <path id="Path_11" data-name="Path 11" d="M0,0H26V26H0Z" fill="none"/>
  <path id="Path_12" data-name="Path 12" d="M3,22.5l1.788-4.117a9.75,9.75,0,1,1,3.683,3.142L3,22.5" transform="translate(0.25 0.251)" fill="none" stroke="#707070" stroke-linecap="round" stroke-linejoin="round" stroke-width="2"/>
  <path id="Path_13" data-name="Path 13" d="M9,10.125a.542.542,0,0,0,1.083,0V9.042A.542.542,0,0,0,9,9.042v1.083a5.417,5.417,0,0,0,5.417,5.417H15.5a.542.542,0,1,0,0-1.083H14.417a.542.542,0,0,0,0,1.083" transform="translate(0.75 0.708)" fill="none" stroke="#707070" stroke-linecap="round" stroke-linejoin="round" stroke-width="2"/>
</svg>
